<mxfile host="Electron" modified="2023-12-30T16:56:41.956Z" agent="Mozilla/5.0 (X11; Linux x86_64) AppleWebKit/537.36 (KHTML, like Gecko) draw.io/22.0.2 Chrome/114.0.5735.289 Electron/25.8.4 Safari/537.36" etag="NQxxjJHR-XREBW5iVtyZ" version="22.0.2" type="device">
  <diagram name="Page-1" id="vRs2j0dey8CRvYGm-JTu">
    <mxGraphModel dx="679" dy="843" grid="1" gridSize="10" guides="1" tooltips="1" connect="1" arrows="1" fold="1" page="1" pageScale="1" pageWidth="850" pageHeight="1100" math="0" shadow="0">
      <root>
        <mxCell id="0" />
        <mxCell id="1" parent="0" />
        <mxCell id="zubo-yhdf5VfKYRZ8-ow-1" value="&amp;lt;&amp;lt;controller&amp;gt;&amp;gt;&lt;br&gt;proposeCourse" style="swimlane;fontStyle=1;align=center;verticalAlign=top;childLayout=stackLayout;horizontal=1;startSize=40;horizontalStack=0;resizeParent=1;resizeParentMax=0;resizeLast=0;collapsible=1;marginBottom=0;whiteSpace=wrap;html=1;" parent="1" vertex="1">
          <mxGeometry x="230" y="330" width="330" height="100" as="geometry" />
        </mxCell>
        <mxCell id="zubo-yhdf5VfKYRZ8-ow-3" value="" style="line;strokeWidth=1;fillColor=none;align=left;verticalAlign=middle;spacingTop=-1;spacingLeft=3;spacingRight=3;rotatable=0;labelPosition=right;points=[];portConstraint=eastwest;strokeColor=inherit;" parent="zubo-yhdf5VfKYRZ8-ow-1" vertex="1">
          <mxGeometry y="40" width="330" height="8" as="geometry" />
        </mxCell>
        <mxCell id="zubo-yhdf5VfKYRZ8-ow-4" value="+ proposeCourse()" style="text;strokeColor=none;fillColor=none;align=left;verticalAlign=top;spacingLeft=4;spacingRight=4;overflow=hidden;rotatable=0;points=[[0,0.5],[1,0.5]];portConstraint=eastwest;whiteSpace=wrap;html=1;" parent="zubo-yhdf5VfKYRZ8-ow-1" vertex="1">
          <mxGeometry y="48" width="330" height="26" as="geometry" />
        </mxCell>
        <mxCell id="zubo-yhdf5VfKYRZ8-ow-5" value="+ compileSendForm(title : String, subject : String, CV : File)" style="text;strokeColor=none;fillColor=none;align=left;verticalAlign=top;spacingLeft=4;spacingRight=4;overflow=hidden;rotatable=0;points=[[0,0.5],[1,0.5]];portConstraint=eastwest;whiteSpace=wrap;html=1;" parent="zubo-yhdf5VfKYRZ8-ow-1" vertex="1">
          <mxGeometry y="74" width="330" height="26" as="geometry" />
        </mxCell>
        <mxCell id="zubo-yhdf5VfKYRZ8-ow-10" value="&amp;lt;&amp;lt;controller&amp;gt;&amp;gt;&lt;br&gt;courseProposalLandingGUI" style="swimlane;fontStyle=1;align=center;verticalAlign=top;childLayout=stackLayout;horizontal=1;startSize=40;horizontalStack=0;resizeParent=1;resizeParentMax=0;resizeLast=0;collapsible=1;marginBottom=0;whiteSpace=wrap;html=1;" parent="1" vertex="1">
          <mxGeometry x="170" y="160" width="195" height="100" as="geometry" />
        </mxCell>
        <mxCell id="zubo-yhdf5VfKYRZ8-ow-11" value="" style="line;strokeWidth=1;fillColor=none;align=left;verticalAlign=middle;spacingTop=-1;spacingLeft=3;spacingRight=3;rotatable=0;labelPosition=right;points=[];portConstraint=eastwest;strokeColor=inherit;" parent="zubo-yhdf5VfKYRZ8-ow-10" vertex="1">
          <mxGeometry y="40" width="195" height="8" as="geometry" />
        </mxCell>
        <mxCell id="pH69hkPTxForjX6qZ0RX-25" value="+ back()" style="text;strokeColor=none;fillColor=none;align=left;verticalAlign=top;spacingLeft=4;spacingRight=4;overflow=hidden;rotatable=0;points=[[0,0.5],[1,0.5]];portConstraint=eastwest;whiteSpace=wrap;html=1;" parent="zubo-yhdf5VfKYRZ8-ow-10" vertex="1">
          <mxGeometry y="48" width="195" height="26" as="geometry" />
        </mxCell>
        <mxCell id="zubo-yhdf5VfKYRZ8-ow-12" value="+ propose()" style="text;strokeColor=none;fillColor=none;align=left;verticalAlign=top;spacingLeft=4;spacingRight=4;overflow=hidden;rotatable=0;points=[[0,0.5],[1,0.5]];portConstraint=eastwest;whiteSpace=wrap;html=1;" parent="zubo-yhdf5VfKYRZ8-ow-10" vertex="1">
          <mxGeometry y="74" width="195" height="26" as="geometry" />
        </mxCell>
        <mxCell id="zubo-yhdf5VfKYRZ8-ow-13" value="&amp;lt;&amp;lt;controller&amp;gt;&amp;gt;&lt;br&gt;courseProposalFormGUI" style="swimlane;fontStyle=1;align=center;verticalAlign=top;childLayout=stackLayout;horizontal=1;startSize=40;horizontalStack=0;resizeParent=1;resizeParentMax=0;resizeLast=0;collapsible=1;marginBottom=0;whiteSpace=wrap;html=1;" parent="1" vertex="1">
          <mxGeometry x="460" y="210" width="195" height="74" as="geometry" />
        </mxCell>
        <mxCell id="zubo-yhdf5VfKYRZ8-ow-14" value="" style="line;strokeWidth=1;fillColor=none;align=left;verticalAlign=middle;spacingTop=-1;spacingLeft=3;spacingRight=3;rotatable=0;labelPosition=right;points=[];portConstraint=eastwest;strokeColor=inherit;" parent="zubo-yhdf5VfKYRZ8-ow-13" vertex="1">
          <mxGeometry y="40" width="195" height="8" as="geometry" />
        </mxCell>
        <mxCell id="zubo-yhdf5VfKYRZ8-ow-15" value="+ sendForm()" style="text;strokeColor=none;fillColor=none;align=left;verticalAlign=top;spacingLeft=4;spacingRight=4;overflow=hidden;rotatable=0;points=[[0,0.5],[1,0.5]];portConstraint=eastwest;whiteSpace=wrap;html=1;" parent="zubo-yhdf5VfKYRZ8-ow-13" vertex="1">
          <mxGeometry y="48" width="195" height="26" as="geometry" />
        </mxCell>
        <mxCell id="zubo-yhdf5VfKYRZ8-ow-16" value="&amp;lt;&amp;lt;controller&amp;gt;&amp;gt;&lt;br&gt;login" style="swimlane;fontStyle=1;align=center;verticalAlign=top;childLayout=stackLayout;horizontal=1;startSize=40;horizontalStack=0;resizeParent=1;resizeParentMax=0;resizeLast=0;collapsible=1;marginBottom=0;whiteSpace=wrap;html=1;" parent="1" vertex="1">
          <mxGeometry x="530" y="490" width="160" height="100" as="geometry" />
        </mxCell>
        <mxCell id="zubo-yhdf5VfKYRZ8-ow-17" value="" style="line;strokeWidth=1;fillColor=none;align=left;verticalAlign=middle;spacingTop=-1;spacingLeft=3;spacingRight=3;rotatable=0;labelPosition=right;points=[];portConstraint=eastwest;strokeColor=inherit;" parent="zubo-yhdf5VfKYRZ8-ow-16" vertex="1">
          <mxGeometry y="40" width="160" height="8" as="geometry" />
        </mxCell>
        <mxCell id="zubo-yhdf5VfKYRZ8-ow-18" value="+ loginMethod()" style="text;strokeColor=none;fillColor=none;align=left;verticalAlign=top;spacingLeft=4;spacingRight=4;overflow=hidden;rotatable=0;points=[[0,0.5],[1,0.5]];portConstraint=eastwest;whiteSpace=wrap;html=1;" parent="zubo-yhdf5VfKYRZ8-ow-16" vertex="1">
          <mxGeometry y="48" width="160" height="26" as="geometry" />
        </mxCell>
        <mxCell id="zubo-yhdf5VfKYRZ8-ow-19" value="+ signInMethod()" style="text;strokeColor=none;fillColor=none;align=left;verticalAlign=top;spacingLeft=4;spacingRight=4;overflow=hidden;rotatable=0;points=[[0,0.5],[1,0.5]];portConstraint=eastwest;whiteSpace=wrap;html=1;" parent="zubo-yhdf5VfKYRZ8-ow-16" vertex="1">
          <mxGeometry y="74" width="160" height="26" as="geometry" />
        </mxCell>
        <mxCell id="zubo-yhdf5VfKYRZ8-ow-20" value="&amp;lt;&amp;lt;Bean&amp;gt;&amp;gt;&lt;br&gt;beanUser" style="swimlane;fontStyle=1;align=center;verticalAlign=top;childLayout=stackLayout;horizontal=1;startSize=40;horizontalStack=0;resizeParent=1;resizeParentMax=0;resizeLast=0;collapsible=1;marginBottom=0;whiteSpace=wrap;html=1;" parent="1" vertex="1">
          <mxGeometry x="655" y="656" width="160" height="152" as="geometry" />
        </mxCell>
        <mxCell id="zubo-yhdf5VfKYRZ8-ow-21" value="+ email : String" style="text;strokeColor=none;fillColor=none;align=left;verticalAlign=top;spacingLeft=4;spacingRight=4;overflow=hidden;rotatable=0;points=[[0,0.5],[1,0.5]];portConstraint=eastwest;whiteSpace=wrap;html=1;" parent="zubo-yhdf5VfKYRZ8-ow-20" vertex="1">
          <mxGeometry y="40" width="160" height="26" as="geometry" />
        </mxCell>
        <mxCell id="zubo-yhdf5VfKYRZ8-ow-22" value="+ username : String" style="text;strokeColor=none;fillColor=none;align=left;verticalAlign=top;spacingLeft=4;spacingRight=4;overflow=hidden;rotatable=0;points=[[0,0.5],[1,0.5]];portConstraint=eastwest;whiteSpace=wrap;html=1;" parent="zubo-yhdf5VfKYRZ8-ow-20" vertex="1">
          <mxGeometry y="66" width="160" height="26" as="geometry" />
        </mxCell>
        <mxCell id="zubo-yhdf5VfKYRZ8-ow-23" value="+ pw : String" style="text;strokeColor=none;fillColor=none;align=left;verticalAlign=top;spacingLeft=4;spacingRight=4;overflow=hidden;rotatable=0;points=[[0,0.5],[1,0.5]];portConstraint=eastwest;whiteSpace=wrap;html=1;" parent="zubo-yhdf5VfKYRZ8-ow-20" vertex="1">
          <mxGeometry y="92" width="160" height="26" as="geometry" />
        </mxCell>
        <mxCell id="zubo-yhdf5VfKYRZ8-ow-24" value="+ isProfessor : Boolean" style="text;strokeColor=none;fillColor=none;align=left;verticalAlign=top;spacingLeft=4;spacingRight=4;overflow=hidden;rotatable=0;points=[[0,0.5],[1,0.5]];portConstraint=eastwest;whiteSpace=wrap;html=1;" parent="zubo-yhdf5VfKYRZ8-ow-20" vertex="1">
          <mxGeometry y="118" width="160" height="26" as="geometry" />
        </mxCell>
        <mxCell id="zubo-yhdf5VfKYRZ8-ow-25" value="" style="line;strokeWidth=1;fillColor=none;align=left;verticalAlign=middle;spacingTop=-1;spacingLeft=3;spacingRight=3;rotatable=0;labelPosition=right;points=[];portConstraint=eastwest;strokeColor=inherit;" parent="zubo-yhdf5VfKYRZ8-ow-20" vertex="1">
          <mxGeometry y="144" width="160" height="8" as="geometry" />
        </mxCell>
        <mxCell id="zubo-yhdf5VfKYRZ8-ow-26" value="" style="endArrow=open;endSize=12;dashed=1;html=1;rounded=0;" parent="1" source="zubo-yhdf5VfKYRZ8-ow-16" target="zubo-yhdf5VfKYRZ8-ow-20" edge="1">
          <mxGeometry width="160" relative="1" as="geometry">
            <mxPoint x="225" y="644" as="sourcePoint" />
            <mxPoint x="385" y="644" as="targetPoint" />
          </mxGeometry>
        </mxCell>
        <mxCell id="zubo-yhdf5VfKYRZ8-ow-27" value="&amp;lt;&amp;lt;view&amp;gt;&amp;gt;&lt;br&gt;landingProposal" style="swimlane;fontStyle=1;align=center;verticalAlign=top;childLayout=stackLayout;horizontal=1;startSize=42;horizontalStack=0;resizeParent=1;resizeParentMax=0;resizeLast=0;collapsible=1;marginBottom=0;whiteSpace=wrap;html=1;" parent="1" vertex="1">
          <mxGeometry x="30" y="80" width="160" height="50" as="geometry" />
        </mxCell>
        <mxCell id="zubo-yhdf5VfKYRZ8-ow-29" value="" style="line;strokeWidth=1;fillColor=none;align=left;verticalAlign=middle;spacingTop=-1;spacingLeft=3;spacingRight=3;rotatable=0;labelPosition=right;points=[];portConstraint=eastwest;strokeColor=inherit;" parent="zubo-yhdf5VfKYRZ8-ow-27" vertex="1">
          <mxGeometry y="42" width="160" height="8" as="geometry" />
        </mxCell>
        <mxCell id="zubo-yhdf5VfKYRZ8-ow-33" value="&amp;lt;&amp;lt;view&amp;gt;&amp;gt;&lt;br&gt;form" style="swimlane;fontStyle=1;align=center;verticalAlign=top;childLayout=stackLayout;horizontal=1;startSize=42;horizontalStack=0;resizeParent=1;resizeParentMax=0;resizeLast=0;collapsible=1;marginBottom=0;whiteSpace=wrap;html=1;" parent="1" vertex="1">
          <mxGeometry x="620" y="140" width="160" height="50" as="geometry" />
        </mxCell>
        <mxCell id="zubo-yhdf5VfKYRZ8-ow-34" value="" style="line;strokeWidth=1;fillColor=none;align=left;verticalAlign=middle;spacingTop=-1;spacingLeft=3;spacingRight=3;rotatable=0;labelPosition=right;points=[];portConstraint=eastwest;strokeColor=inherit;" parent="zubo-yhdf5VfKYRZ8-ow-33" vertex="1">
          <mxGeometry y="42" width="160" height="8" as="geometry" />
        </mxCell>
        <mxCell id="zubo-yhdf5VfKYRZ8-ow-35" value="&amp;lt;&amp;lt;DAO&amp;gt;&amp;gt;&lt;br&gt;coursesDAO" style="swimlane;fontStyle=1;align=center;verticalAlign=top;childLayout=stackLayout;horizontal=1;startSize=40;horizontalStack=0;resizeParent=1;resizeParentMax=0;resizeLast=0;collapsible=1;marginBottom=0;whiteSpace=wrap;html=1;" parent="1" vertex="1">
          <mxGeometry x="220" y="490" width="270" height="126" as="geometry" />
        </mxCell>
        <mxCell id="zubo-yhdf5VfKYRZ8-ow-37" value="" style="line;strokeWidth=1;fillColor=none;align=left;verticalAlign=middle;spacingTop=-1;spacingLeft=3;spacingRight=3;rotatable=0;labelPosition=right;points=[];portConstraint=eastwest;strokeColor=inherit;" parent="zubo-yhdf5VfKYRZ8-ow-35" vertex="1">
          <mxGeometry y="40" width="270" height="8" as="geometry" />
        </mxCell>
        <mxCell id="pH69hkPTxForjX6qZ0RX-15" value="+ insertCourse(Form : form, course : Course)" style="text;strokeColor=none;fillColor=none;align=left;verticalAlign=top;spacingLeft=4;spacingRight=4;overflow=hidden;rotatable=0;points=[[0,0.5],[1,0.5]];portConstraint=eastwest;whiteSpace=wrap;html=1;" parent="zubo-yhdf5VfKYRZ8-ow-35" vertex="1">
          <mxGeometry y="48" width="270" height="26" as="geometry" />
        </mxCell>
        <mxCell id="zubo-yhdf5VfKYRZ8-ow-36" value="+ insertCourseRequest(Form : form)" style="text;strokeColor=none;fillColor=none;align=left;verticalAlign=top;spacingLeft=4;spacingRight=4;overflow=hidden;rotatable=0;points=[[0,0.5],[1,0.5]];portConstraint=eastwest;whiteSpace=wrap;html=1;" parent="zubo-yhdf5VfKYRZ8-ow-35" vertex="1">
          <mxGeometry y="74" width="270" height="26" as="geometry" />
        </mxCell>
        <mxCell id="pH69hkPTxForjX6qZ0RX-16" value="+ accept(form : Form)" style="text;strokeColor=none;fillColor=none;align=left;verticalAlign=top;spacingLeft=4;spacingRight=4;overflow=hidden;rotatable=0;points=[[0,0.5],[1,0.5]];portConstraint=eastwest;whiteSpace=wrap;html=1;" parent="zubo-yhdf5VfKYRZ8-ow-35" vertex="1">
          <mxGeometry y="100" width="270" height="26" as="geometry" />
        </mxCell>
        <mxCell id="zubo-yhdf5VfKYRZ8-ow-39" value="coursesAddingQuery" style="swimlane;fontStyle=1;align=center;verticalAlign=top;childLayout=stackLayout;horizontal=1;startSize=26;horizontalStack=0;resizeParent=1;resizeParentMax=0;resizeLast=0;collapsible=1;marginBottom=0;whiteSpace=wrap;html=1;" parent="1" vertex="1">
          <mxGeometry x="245" y="656" width="375" height="112" as="geometry" />
        </mxCell>
        <mxCell id="zubo-yhdf5VfKYRZ8-ow-41" value="" style="line;strokeWidth=1;fillColor=none;align=left;verticalAlign=middle;spacingTop=-1;spacingLeft=3;spacingRight=3;rotatable=0;labelPosition=right;points=[];portConstraint=eastwest;strokeColor=inherit;" parent="zubo-yhdf5VfKYRZ8-ow-39" vertex="1">
          <mxGeometry y="26" width="375" height="8" as="geometry" />
        </mxCell>
        <mxCell id="pH69hkPTxForjX6qZ0RX-17" value="+ insertCourseQuery(stmt : Statement, Course : course)" style="text;strokeColor=none;fillColor=none;align=left;verticalAlign=top;spacingLeft=4;spacingRight=4;overflow=hidden;rotatable=0;points=[[0,0.5],[1,0.5]];portConstraint=eastwest;whiteSpace=wrap;html=1;" parent="zubo-yhdf5VfKYRZ8-ow-39" vertex="1">
          <mxGeometry y="34" width="375" height="26" as="geometry" />
        </mxCell>
        <mxCell id="pH69hkPTxForjX6qZ0RX-18" value="+ insertCourseRequestQuery(stmt : Statement, form : Form)" style="text;strokeColor=none;fillColor=none;align=left;verticalAlign=top;spacingLeft=4;spacingRight=4;overflow=hidden;rotatable=0;points=[[0,0.5],[1,0.5]];portConstraint=eastwest;whiteSpace=wrap;html=1;" parent="zubo-yhdf5VfKYRZ8-ow-39" vertex="1">
          <mxGeometry y="60" width="375" height="26" as="geometry" />
        </mxCell>
        <mxCell id="zubo-yhdf5VfKYRZ8-ow-42" value="+ acceptQuery(stmt : Statement, form : Form)" style="text;strokeColor=none;fillColor=none;align=left;verticalAlign=top;spacingLeft=4;spacingRight=4;overflow=hidden;rotatable=0;points=[[0,0.5],[1,0.5]];portConstraint=eastwest;whiteSpace=wrap;html=1;" parent="zubo-yhdf5VfKYRZ8-ow-39" vertex="1">
          <mxGeometry y="86" width="375" height="26" as="geometry" />
        </mxCell>
        <mxCell id="zubo-yhdf5VfKYRZ8-ow-43" value="" style="endArrow=open;endFill=1;endSize=12;html=1;rounded=0;" parent="1" source="zubo-yhdf5VfKYRZ8-ow-1" target="zubo-yhdf5VfKYRZ8-ow-35" edge="1">
          <mxGeometry width="160" relative="1" as="geometry">
            <mxPoint x="100" y="490" as="sourcePoint" />
            <mxPoint x="260" y="490" as="targetPoint" />
          </mxGeometry>
        </mxCell>
        <mxCell id="zubo-yhdf5VfKYRZ8-ow-44" value="&amp;lt;&amp;lt;entity&amp;gt;&amp;gt;&lt;br&gt;course" style="swimlane;fontStyle=1;align=center;verticalAlign=top;childLayout=stackLayout;horizontal=1;startSize=40;horizontalStack=0;resizeParent=1;resizeParentMax=0;resizeLast=0;collapsible=1;marginBottom=0;whiteSpace=wrap;html=1;" parent="1" vertex="1">
          <mxGeometry x="20" y="430" width="160" height="204" as="geometry" />
        </mxCell>
        <mxCell id="zubo-yhdf5VfKYRZ8-ow-45" value="+ price: Double" style="text;strokeColor=none;fillColor=none;align=left;verticalAlign=top;spacingLeft=4;spacingRight=4;overflow=hidden;rotatable=0;points=[[0,0.5],[1,0.5]];portConstraint=eastwest;whiteSpace=wrap;html=1;" parent="zubo-yhdf5VfKYRZ8-ow-44" vertex="1">
          <mxGeometry y="40" width="160" height="26" as="geometry" />
        </mxCell>
        <mxCell id="zubo-yhdf5VfKYRZ8-ow-46" value="+ courseDescription : String" style="text;strokeColor=none;fillColor=none;align=left;verticalAlign=top;spacingLeft=4;spacingRight=4;overflow=hidden;rotatable=0;points=[[0,0.5],[1,0.5]];portConstraint=eastwest;whiteSpace=wrap;html=1;" parent="zubo-yhdf5VfKYRZ8-ow-44" vertex="1">
          <mxGeometry y="66" width="160" height="26" as="geometry" />
        </mxCell>
        <mxCell id="zubo-yhdf5VfKYRZ8-ow-47" value="+ totalHours: Integer" style="text;strokeColor=none;fillColor=none;align=left;verticalAlign=top;spacingLeft=4;spacingRight=4;overflow=hidden;rotatable=0;points=[[0,0.5],[1,0.5]];portConstraint=eastwest;whiteSpace=wrap;html=1;" parent="zubo-yhdf5VfKYRZ8-ow-44" vertex="1">
          <mxGeometry y="92" width="160" height="26" as="geometry" />
        </mxCell>
        <mxCell id="zubo-yhdf5VfKYRZ8-ow-48" value="+ courseSubject: String" style="text;strokeColor=none;fillColor=none;align=left;verticalAlign=top;spacingLeft=4;spacingRight=4;overflow=hidden;rotatable=0;points=[[0,0.5],[1,0.5]];portConstraint=eastwest;whiteSpace=wrap;html=1;" parent="zubo-yhdf5VfKYRZ8-ow-44" vertex="1">
          <mxGeometry y="118" width="160" height="26" as="geometry" />
        </mxCell>
        <mxCell id="zubo-yhdf5VfKYRZ8-ow-49" value="+ professorName: String" style="text;strokeColor=none;fillColor=none;align=left;verticalAlign=top;spacingLeft=4;spacingRight=4;overflow=hidden;rotatable=0;points=[[0,0.5],[1,0.5]];portConstraint=eastwest;whiteSpace=wrap;html=1;" parent="zubo-yhdf5VfKYRZ8-ow-44" vertex="1">
          <mxGeometry y="144" width="160" height="26" as="geometry" />
        </mxCell>
        <mxCell id="zubo-yhdf5VfKYRZ8-ow-50" value="+ isAccepted : Boolean" style="text;strokeColor=none;fillColor=none;align=left;verticalAlign=top;spacingLeft=4;spacingRight=4;overflow=hidden;rotatable=0;points=[[0,0.5],[1,0.5]];portConstraint=eastwest;whiteSpace=wrap;html=1;" parent="zubo-yhdf5VfKYRZ8-ow-44" vertex="1">
          <mxGeometry y="170" width="160" height="26" as="geometry" />
        </mxCell>
        <mxCell id="zubo-yhdf5VfKYRZ8-ow-51" value="" style="line;strokeWidth=1;fillColor=none;align=left;verticalAlign=middle;spacingTop=-1;spacingLeft=3;spacingRight=3;rotatable=0;labelPosition=right;points=[];portConstraint=eastwest;strokeColor=inherit;" parent="zubo-yhdf5VfKYRZ8-ow-44" vertex="1">
          <mxGeometry y="196" width="160" height="8" as="geometry" />
        </mxCell>
        <mxCell id="zubo-yhdf5VfKYRZ8-ow-52" value="" style="endArrow=diamondThin;endFill=1;endSize=24;html=1;rounded=0;" parent="1" source="zubo-yhdf5VfKYRZ8-ow-53" target="zubo-yhdf5VfKYRZ8-ow-44" edge="1">
          <mxGeometry width="160" relative="1" as="geometry">
            <mxPoint x="245" y="743" as="sourcePoint" />
            <mxPoint x="500" y="890" as="targetPoint" />
          </mxGeometry>
        </mxCell>
        <mxCell id="zubo-yhdf5VfKYRZ8-ow-53" value="&amp;lt;&amp;lt;entity&amp;gt;&amp;gt;&lt;br&gt;lesson" style="swimlane;fontStyle=1;align=center;verticalAlign=top;childLayout=stackLayout;horizontal=1;startSize=40;horizontalStack=0;resizeParent=1;resizeParentMax=0;resizeLast=0;collapsible=1;marginBottom=0;whiteSpace=wrap;html=1;" parent="1" vertex="1">
          <mxGeometry x="20" y="716" width="160" height="126" as="geometry" />
        </mxCell>
        <mxCell id="zubo-yhdf5VfKYRZ8-ow-54" value="+ title : String" style="text;strokeColor=none;fillColor=none;align=left;verticalAlign=top;spacingLeft=4;spacingRight=4;overflow=hidden;rotatable=0;points=[[0,0.5],[1,0.5]];portConstraint=eastwest;whiteSpace=wrap;html=1;" parent="zubo-yhdf5VfKYRZ8-ow-53" vertex="1">
          <mxGeometry y="40" width="160" height="26" as="geometry" />
        </mxCell>
        <mxCell id="zubo-yhdf5VfKYRZ8-ow-55" value="+ lastWatched : Boolean" style="text;strokeColor=none;fillColor=none;align=left;verticalAlign=top;spacingLeft=4;spacingRight=4;overflow=hidden;rotatable=0;points=[[0,0.5],[1,0.5]];portConstraint=eastwest;whiteSpace=wrap;html=1;" parent="zubo-yhdf5VfKYRZ8-ow-53" vertex="1">
          <mxGeometry y="66" width="160" height="26" as="geometry" />
        </mxCell>
        <mxCell id="zubo-yhdf5VfKYRZ8-ow-56" value="+ lessonDescription : String" style="text;strokeColor=none;fillColor=none;align=left;verticalAlign=top;spacingLeft=4;spacingRight=4;overflow=hidden;rotatable=0;points=[[0,0.5],[1,0.5]];portConstraint=eastwest;whiteSpace=wrap;html=1;" parent="zubo-yhdf5VfKYRZ8-ow-53" vertex="1">
          <mxGeometry y="92" width="160" height="26" as="geometry" />
        </mxCell>
        <mxCell id="zubo-yhdf5VfKYRZ8-ow-57" value="" style="line;strokeWidth=1;fillColor=none;align=left;verticalAlign=middle;spacingTop=-1;spacingLeft=3;spacingRight=3;rotatable=0;labelPosition=right;points=[];portConstraint=eastwest;strokeColor=inherit;" parent="zubo-yhdf5VfKYRZ8-ow-53" vertex="1">
          <mxGeometry y="118" width="160" height="8" as="geometry" />
        </mxCell>
        <mxCell id="zubo-yhdf5VfKYRZ8-ow-58" value="" style="endArrow=open;endFill=1;endSize=12;html=1;rounded=0;" parent="1" source="zubo-yhdf5VfKYRZ8-ow-1" target="zubo-yhdf5VfKYRZ8-ow-44" edge="1">
          <mxGeometry width="160" relative="1" as="geometry">
            <mxPoint x="274" y="430" as="sourcePoint" />
            <mxPoint x="296" y="486" as="targetPoint" />
          </mxGeometry>
        </mxCell>
        <mxCell id="pH69hkPTxForjX6qZ0RX-1" value="" style="endArrow=open;endFill=1;endSize=12;html=1;rounded=0;" parent="1" source="zubo-yhdf5VfKYRZ8-ow-1" target="zubo-yhdf5VfKYRZ8-ow-10" edge="1">
          <mxGeometry width="160" relative="1" as="geometry">
            <mxPoint x="300" y="280" as="sourcePoint" />
            <mxPoint x="460" y="280" as="targetPoint" />
          </mxGeometry>
        </mxCell>
        <mxCell id="pH69hkPTxForjX6qZ0RX-2" value="" style="endArrow=open;endSize=12;dashed=1;html=1;rounded=0;" parent="1" source="zubo-yhdf5VfKYRZ8-ow-35" target="zubo-yhdf5VfKYRZ8-ow-44" edge="1">
          <mxGeometry width="160" relative="1" as="geometry">
            <mxPoint x="360" y="750" as="sourcePoint" />
            <mxPoint x="520" y="750" as="targetPoint" />
          </mxGeometry>
        </mxCell>
        <mxCell id="pH69hkPTxForjX6qZ0RX-3" value="" style="endArrow=open;endFill=1;endSize=12;html=1;rounded=0;" parent="1" source="zubo-yhdf5VfKYRZ8-ow-35" target="zubo-yhdf5VfKYRZ8-ow-39" edge="1">
          <mxGeometry width="160" relative="1" as="geometry">
            <mxPoint x="330" y="840" as="sourcePoint" />
            <mxPoint x="490" y="840" as="targetPoint" />
          </mxGeometry>
        </mxCell>
        <mxCell id="pH69hkPTxForjX6qZ0RX-4" value="" style="endArrow=open;endFill=1;endSize=12;html=1;rounded=0;" parent="1" source="zubo-yhdf5VfKYRZ8-ow-13" target="zubo-yhdf5VfKYRZ8-ow-16" edge="1">
          <mxGeometry width="160" relative="1" as="geometry">
            <mxPoint x="490" y="690" as="sourcePoint" />
            <mxPoint x="650" y="690" as="targetPoint" />
          </mxGeometry>
        </mxCell>
        <mxCell id="pH69hkPTxForjX6qZ0RX-5" value="" style="endArrow=open;endFill=1;endSize=12;html=1;rounded=0;" parent="1" source="zubo-yhdf5VfKYRZ8-ow-10" target="zubo-yhdf5VfKYRZ8-ow-13" edge="1">
          <mxGeometry width="160" relative="1" as="geometry">
            <mxPoint x="490" y="420" as="sourcePoint" />
            <mxPoint x="650" y="420" as="targetPoint" />
          </mxGeometry>
        </mxCell>
        <mxCell id="pH69hkPTxForjX6qZ0RX-6" value="" style="endArrow=open;endFill=1;endSize=12;html=1;rounded=0;" parent="1" source="zubo-yhdf5VfKYRZ8-ow-10" target="zubo-yhdf5VfKYRZ8-ow-27" edge="1">
          <mxGeometry width="160" relative="1" as="geometry">
            <mxPoint x="310" y="130" as="sourcePoint" />
            <mxPoint x="470" y="130" as="targetPoint" />
          </mxGeometry>
        </mxCell>
        <mxCell id="pH69hkPTxForjX6qZ0RX-7" value="" style="endArrow=open;endFill=1;endSize=12;html=1;rounded=0;" parent="1" source="zubo-yhdf5VfKYRZ8-ow-13" target="zubo-yhdf5VfKYRZ8-ow-33" edge="1">
          <mxGeometry width="160" relative="1" as="geometry">
            <mxPoint x="202" y="200" as="sourcePoint" />
            <mxPoint x="144" y="140" as="targetPoint" />
          </mxGeometry>
        </mxCell>
        <mxCell id="pH69hkPTxForjX6qZ0RX-8" value="&amp;lt;&amp;lt;entity&amp;gt;&amp;gt;&lt;br&gt;form" style="swimlane;fontStyle=1;align=center;verticalAlign=top;childLayout=stackLayout;horizontal=1;startSize=40;horizontalStack=0;resizeParent=1;resizeParentMax=0;resizeLast=0;collapsible=1;marginBottom=0;whiteSpace=wrap;html=1;" parent="1" vertex="1">
          <mxGeometry x="20" y="284" width="160" height="126" as="geometry" />
        </mxCell>
        <mxCell id="pH69hkPTxForjX6qZ0RX-9" value="+ title : String" style="text;strokeColor=none;fillColor=none;align=left;verticalAlign=top;spacingLeft=4;spacingRight=4;overflow=hidden;rotatable=0;points=[[0,0.5],[1,0.5]];portConstraint=eastwest;whiteSpace=wrap;html=1;" parent="pH69hkPTxForjX6qZ0RX-8" vertex="1">
          <mxGeometry y="40" width="160" height="26" as="geometry" />
        </mxCell>
        <mxCell id="pH69hkPTxForjX6qZ0RX-13" value="+ CV : file" style="text;strokeColor=none;fillColor=none;align=left;verticalAlign=top;spacingLeft=4;spacingRight=4;overflow=hidden;rotatable=0;points=[[0,0.5],[1,0.5]];portConstraint=eastwest;whiteSpace=wrap;html=1;" parent="pH69hkPTxForjX6qZ0RX-8" vertex="1">
          <mxGeometry y="66" width="160" height="26" as="geometry" />
        </mxCell>
        <mxCell id="pH69hkPTxForjX6qZ0RX-12" value="+ desc : String" style="text;strokeColor=none;fillColor=none;align=left;verticalAlign=top;spacingLeft=4;spacingRight=4;overflow=hidden;rotatable=0;points=[[0,0.5],[1,0.5]];portConstraint=eastwest;whiteSpace=wrap;html=1;" parent="pH69hkPTxForjX6qZ0RX-8" vertex="1">
          <mxGeometry y="92" width="160" height="26" as="geometry" />
        </mxCell>
        <mxCell id="pH69hkPTxForjX6qZ0RX-10" value="" style="line;strokeWidth=1;fillColor=none;align=left;verticalAlign=middle;spacingTop=-1;spacingLeft=3;spacingRight=3;rotatable=0;labelPosition=right;points=[];portConstraint=eastwest;strokeColor=inherit;" parent="pH69hkPTxForjX6qZ0RX-8" vertex="1">
          <mxGeometry y="118" width="160" height="8" as="geometry" />
        </mxCell>
        <mxCell id="pH69hkPTxForjX6qZ0RX-14" value="" style="endArrow=open;endFill=1;endSize=12;html=1;rounded=0;" parent="1" source="zubo-yhdf5VfKYRZ8-ow-1" target="pH69hkPTxForjX6qZ0RX-8" edge="1">
          <mxGeometry width="160" relative="1" as="geometry">
            <mxPoint x="340" y="290" as="sourcePoint" />
            <mxPoint x="500" y="290" as="targetPoint" />
          </mxGeometry>
        </mxCell>
        <mxCell id="pH69hkPTxForjX6qZ0RX-19" value="&amp;lt;&amp;lt;bean&amp;gt;&amp;gt;&lt;br&gt;formBean" style="swimlane;fontStyle=1;align=center;verticalAlign=top;childLayout=stackLayout;horizontal=1;startSize=41;horizontalStack=0;resizeParent=1;resizeParentMax=0;resizeLast=0;collapsible=1;marginBottom=0;whiteSpace=wrap;html=1;" parent="1" vertex="1">
          <mxGeometry x="670" y="290.5" width="160" height="179" as="geometry" />
        </mxCell>
        <mxCell id="pH69hkPTxForjX6qZ0RX-20" value="+ description : String" style="text;strokeColor=none;fillColor=none;align=left;verticalAlign=top;spacingLeft=4;spacingRight=4;overflow=hidden;rotatable=0;points=[[0,0.5],[1,0.5]];portConstraint=eastwest;whiteSpace=wrap;html=1;" parent="pH69hkPTxForjX6qZ0RX-19" vertex="1">
          <mxGeometry y="41" width="160" height="26" as="geometry" />
        </mxCell>
        <mxCell id="pH69hkPTxForjX6qZ0RX-28" value="+ title : String" style="text;strokeColor=none;fillColor=none;align=left;verticalAlign=top;spacingLeft=4;spacingRight=4;overflow=hidden;rotatable=0;points=[[0,0.5],[1,0.5]];portConstraint=eastwest;whiteSpace=wrap;html=1;" parent="pH69hkPTxForjX6qZ0RX-19" vertex="1">
          <mxGeometry y="67" width="160" height="26" as="geometry" />
        </mxCell>
        <mxCell id="pH69hkPTxForjX6qZ0RX-27" value="+ CV : file" style="text;strokeColor=none;fillColor=none;align=left;verticalAlign=top;spacingLeft=4;spacingRight=4;overflow=hidden;rotatable=0;points=[[0,0.5],[1,0.5]];portConstraint=eastwest;whiteSpace=wrap;html=1;" parent="pH69hkPTxForjX6qZ0RX-19" vertex="1">
          <mxGeometry y="93" width="160" height="26" as="geometry" />
        </mxCell>
        <mxCell id="pH69hkPTxForjX6qZ0RX-29" value="+ subject : String" style="text;strokeColor=none;fillColor=none;align=left;verticalAlign=top;spacingLeft=4;spacingRight=4;overflow=hidden;rotatable=0;points=[[0,0.5],[1,0.5]];portConstraint=eastwest;whiteSpace=wrap;html=1;" parent="pH69hkPTxForjX6qZ0RX-19" vertex="1">
          <mxGeometry y="119" width="160" height="26" as="geometry" />
        </mxCell>
        <mxCell id="pH69hkPTxForjX6qZ0RX-30" value="+ email : String" style="text;strokeColor=none;fillColor=none;align=left;verticalAlign=top;spacingLeft=4;spacingRight=4;overflow=hidden;rotatable=0;points=[[0,0.5],[1,0.5]];portConstraint=eastwest;whiteSpace=wrap;html=1;" parent="pH69hkPTxForjX6qZ0RX-19" vertex="1">
          <mxGeometry y="145" width="160" height="26" as="geometry" />
        </mxCell>
        <mxCell id="pH69hkPTxForjX6qZ0RX-21" value="" style="line;strokeWidth=1;fillColor=none;align=left;verticalAlign=middle;spacingTop=-1;spacingLeft=3;spacingRight=3;rotatable=0;labelPosition=right;points=[];portConstraint=eastwest;strokeColor=inherit;" parent="pH69hkPTxForjX6qZ0RX-19" vertex="1">
          <mxGeometry y="171" width="160" height="8" as="geometry" />
        </mxCell>
        <mxCell id="pH69hkPTxForjX6qZ0RX-23" value="" style="endArrow=open;endFill=1;endSize=12;html=1;rounded=0;" parent="1" source="zubo-yhdf5VfKYRZ8-ow-13" target="pH69hkPTxForjX6qZ0RX-19" edge="1">
          <mxGeometry width="160" relative="1" as="geometry">
            <mxPoint x="655" y="300" as="sourcePoint" />
            <mxPoint x="815" y="300" as="targetPoint" />
          </mxGeometry>
        </mxCell>
        <mxCell id="pH69hkPTxForjX6qZ0RX-24" value="" style="endArrow=open;endFill=1;endSize=12;html=1;rounded=0;" parent="1" source="zubo-yhdf5VfKYRZ8-ow-1" target="pH69hkPTxForjX6qZ0RX-19" edge="1">
          <mxGeometry width="160" relative="1" as="geometry">
            <mxPoint x="605" y="294" as="sourcePoint" />
            <mxPoint x="650" y="339" as="targetPoint" />
          </mxGeometry>
        </mxCell>
      </root>
    </mxGraphModel>
  </diagram>
</mxfile>
